<?xml version="1.0" encoding="utf-8"?>
<!-- Generator: Adobe Illustrator 24.1.1, SVG Export Plug-In . SVG Version: 6.00 Build 0)  -->
<svg version="1.1" id="e8aabfee-d00f-44c0-b6f7-c40294f8dfa6"
	 xmlns="http://www.w3.org/2000/svg" xmlns:xlink="http://www.w3.org/1999/xlink" x="0px" y="0px" viewBox="0 0 787.2 730"
	 style="enable-background:new 0 0 787.2 730;" xml:space="preserve">
<style type="text/css">
	.st0{fill:#3F3D56;}
	.st1{fill:#F2F2F2;}
	.st2{fill:url(#SVGID_1_);}
	.st3{fill:#FFFFFF;}
	.st4{fill:#6C63FF;}
	.st5{fill:#E23237;}
	.st6{fill:#B52E31;}
	.st7{opacity:0.7;}
	.st8{opacity:0.1;}
	.st9{fill:url(#SVGID_2_);}
	.st10{fill:url(#SVGID_3_);}
	.st11{fill:url(#SVGID_4_);}
	.st12{fill:url(#SVGID_5_);}
	.st13{fill:url(#SVGID_6_);}
	.st14{fill:#535461;}
	.st15{opacity:0.1;enable-background:new    ;}
	.st16{fill:#E0E0E0;}
</style>
<path class="st0" d="M762.7,589.8c0,45.2-26.9,61-60.1,61c-0.8,0-1.5,0-2.3,0c-1.5,0-3.1-0.1-4.6-0.2c-29.9-2.1-53.2-18.7-53.2-60.8
	c0-43.5,55.6-98.5,59.8-102.6l0,0c0.2-0.2,0.2-0.2,0.2-0.2S762.7,544.5,762.7,589.8z"/>
<path class="st1" d="M700.4,643.9l22-30.7l-22,34.1l-0.1,3.5c-1.5,0-3.1-0.1-4.6-0.2l2.4-45.3l0-0.4l0-0.1l0.2-4.3l-22.1-34.2
	l22.1,30.9l0.1,0.9l1.8-34.2l-18.9-35.3l19.1,29.3l1.9-70.9l0-0.2v0.2l-0.3,55.9l18.8-22.2L702,548l-0.5,30.6l17.6-29.4l-17.6,33.9
	l-0.3,17l25.5-40.9L701,606L700.4,643.9z"/>
<path class="st0" d="M138.6,638.4c0,27.1-16.1,36.6-36,36.6c-0.5,0-0.9,0-1.4,0c-0.9,0-1.8-0.1-2.7-0.1
	c-17.9-1.3-31.9-11.2-31.9-36.4c0-26.1,33.3-59,35.8-61.4l0,0c0.1-0.1,0.1-0.1,0.1-0.1S138.6,611.3,138.6,638.4z"/>
<path class="st1" d="M101.3,670.8l13.2-18.4l-13.2,20.4l0,2.1c-0.9,0-1.8-0.1-2.7-0.1l1.4-27.1l0-0.2l0,0l0.1-2.6l-13.2-20.5
	l13.3,18.5l0,0.5l1.1-20.5l-11.3-21.1l11.5,17.5l1.1-42.5l0-0.1v0.1l-0.2,33.5l11.3-13.3l-11.3,16.2l-0.3,18.3l10.5-17.6l-10.6,20.3
	l-0.2,10.2l15.3-24.5l-15.3,28.1L101.3,670.8z"/>
<linearGradient id="SVGID_1_" gradientUnits="userSpaceOnUse" x1="411.1437" y1="245.9294" x2="411.1437" y2="659.0538" gradientTransform="matrix(1 0 0 -1 0 732)">
	<stop  offset="0" style="stop-color:#808080;stop-opacity:0.25"/>
	<stop  offset="0.5351" style="stop-color:#808080;stop-opacity:0.12"/>
	<stop  offset="1" style="stop-color:#808080;stop-opacity:0.1"/>
</linearGradient>
<rect x="193.3" y="72.9" class="st2" width="435.7" height="413.1"/>
<rect x="205.7" y="84.7" class="st3" width="410.9" height="389.7"/>
<rect x="225.5" y="103.5" class="st4" width="371.3" height="352.1"/>
<path class="st5" d="M277.3,205.1l134.1-45.3l137.7,44.5l-22.3,168.2l-115.4,60.6l-113.6-59.8L277.3,205.1z"/>
<path class="st6" d="M549.1,204.3l-137.7-44.5v273.4l115.4-60.5L549.1,204.3L549.1,204.3z"/>
<path class="st3" d="M411.6,191.7L328,368l31.2-0.5l16.8-39.8h75l18.4,40.3l29.8,0.5L411.6,191.7L411.6,191.7z M411.8,248.2l28.2,56
	h-53.1L411.8,248.2z"/>
<g class="st7">
	<g class="st8">
		
			<linearGradient id="SVGID_2_" gradientUnits="userSpaceOnUse" x1="219.7011" y1="-48.902" x2="219.7011" y2="81.957" gradientTransform="matrix(-1 0 0 -1 805.5846 647)">
			<stop  offset="0" style="stop-color:#808080;stop-opacity:0.25"/>
			<stop  offset="0.5351" style="stop-color:#808080;stop-opacity:0.12"/>
			<stop  offset="1" style="stop-color:#808080;stop-opacity:0.1"/>
		</linearGradient>
		<polygon class="st9" points="602.4,565 602.4,583.6 602.4,589.8 602.4,672.2 602.4,678.4 602.4,695.9 577.6,695.9 569.4,695.9 
			569.4,678.4 569.4,672.2 569.4,589.8 569.4,583.6 569.4,565 577.6,565 		"/>
	</g>
	<g class="st8">
		
			<linearGradient id="SVGID_3_" gradientUnits="userSpaceOnUse" x1="254.7341" y1="-48.902" x2="254.7341" y2="81.957" gradientTransform="matrix(-1 0 0 -1 805.5846 647)">
			<stop  offset="0" style="stop-color:#808080;stop-opacity:0.25"/>
			<stop  offset="0.5351" style="stop-color:#808080;stop-opacity:0.12"/>
			<stop  offset="1" style="stop-color:#808080;stop-opacity:0.1"/>
		</linearGradient>
		<polygon class="st10" points="567.3,565 567.3,583.6 567.3,589.8 567.3,672.2 567.3,678.4 567.3,695.9 542.6,695.9 534.4,695.9 
			534.4,678.4 534.4,672.2 534.4,589.8 534.4,583.6 534.4,565 542.6,565 		"/>
	</g>
</g>
<path class="st4" d="M70.7,660.5h58c7.9,0,14.3,6.4,14.3,14.3v8.3c0,7.9-6.4,14.3-14.3,14.3h-58c-7.9,0-14.3-6.4-14.3-14.3v-8.3
	C56.4,666.9,62.8,660.5,70.7,660.5z"/>
<g class="st7">
	<g class="st8">
		
			<linearGradient id="SVGID_4_" gradientUnits="userSpaceOnUse" x1="235.3185" y1="35.098" x2="235.3185" y2="165.957" gradientTransform="matrix(1 0 0 -1 0 732)">
			<stop  offset="0" style="stop-color:#808080;stop-opacity:0.25"/>
			<stop  offset="0.5351" style="stop-color:#808080;stop-opacity:0.12"/>
			<stop  offset="1" style="stop-color:#808080;stop-opacity:0.1"/>
		</linearGradient>
		<polygon class="st11" points="218.8,566 218.8,584.6 218.8,590.8 218.8,673.2 218.8,679.4 218.8,696.9 243.6,696.9 251.8,696.9 
			251.8,679.4 251.8,673.2 251.8,590.8 251.8,584.6 251.8,566 243.6,566 		"/>
	</g>
	<g class="st8">
		
			<linearGradient id="SVGID_5_" gradientUnits="userSpaceOnUse" x1="270.352" y1="35.098" x2="270.352" y2="165.957" gradientTransform="matrix(1 0 0 -1 0 732)">
			<stop  offset="0" style="stop-color:#808080;stop-opacity:0.25"/>
			<stop  offset="0.5351" style="stop-color:#808080;stop-opacity:0.12"/>
			<stop  offset="1" style="stop-color:#808080;stop-opacity:0.1"/>
		</linearGradient>
		<polygon class="st12" points="253.9,566 253.9,584.6 253.9,590.8 253.9,673.2 253.9,679.4 253.9,696.9 278.6,696.9 286.8,696.9 
			286.8,679.4 286.8,673.2 286.8,590.8 286.8,584.6 286.8,566 278.6,566 		"/>
	</g>
	<g class="st8">
		
			<linearGradient id="SVGID_6_" gradientUnits="userSpaceOnUse" x1="319.81" y1="35.12" x2="319.81" y2="170.056" gradientTransform="matrix(1 0 0 -1 0 732)">
			<stop  offset="0" style="stop-color:#808080;stop-opacity:0.25"/>
			<stop  offset="0.5351" style="stop-color:#808080;stop-opacity:0.12"/>
			<stop  offset="1" style="stop-color:#808080;stop-opacity:0.1"/>
		</linearGradient>
		<polygon class="st13" points="352.6,688.4 325.3,585.8 325.3,585.8 323.7,579.9 323.7,579.9 318.9,561.9 287,570.4 291.8,588.4 
			291.8,588.4 293.1,593.1 314.6,674 314.6,674 316.2,680 316.2,680 320.7,696.9 		"/>
	</g>
</g>
<rect x="222.2" y="569.2" class="st14" width="31.3" height="124.3"/>
<rect x="222.2" y="586.9" class="st4" width="31.3" height="5.9"/>
<rect x="222.2" y="671" class="st4" width="31.3" height="5.9"/>
<rect x="245.7" y="569.2" class="st15" width="7.8" height="124.3"/>
<rect x="255.5" y="569.2" class="st14" width="31.3" height="124.3"/>
<rect x="255.5" y="586.9" class="st4" width="31.3" height="5.9"/>
<rect x="255.5" y="671" class="st4" width="31.3" height="5.9"/>
<rect x="279" y="569.2" class="st15" width="7.8" height="124.3"/>
<rect x="302.4" y="567.3" transform="matrix(0.9662 -0.2577 0.2577 0.9662 -151.4594 103.2331)" class="st14" width="31.3" height="124.3"/>
<rect x="291.7" y="586.3" transform="matrix(0.9662 -0.2577 0.2577 0.9662 -141.4675 99.1145)" class="st4" width="31.3" height="5.9"/>
<rect x="313.4" y="667.6" transform="matrix(0.9662 -0.2577 0.2577 0.9662 -161.6865 107.4486)" class="st4" width="31.3" height="5.9"/>
<rect x="325.5" y="564.3" transform="matrix(0.9662 -0.2577 0.2577 0.9662 -150.2965 106.0544)" class="st15" width="7.8" height="124.3"/>
<rect x="566.9" y="569.2" class="st14" width="31.3" height="124.3"/>
<rect x="566.9" y="586.9" class="st4" width="31.3" height="5.9"/>
<rect x="566.9" y="671" class="st4" width="31.3" height="5.9"/>
<rect x="566.9" y="569.2" class="st15" width="7.8" height="124.3"/>
<rect x="533.6" y="569.2" class="st14" width="31.3" height="124.3"/>
<rect x="533.6" y="586.9" class="st4" width="31.3" height="5.9"/>
<rect x="533.6" y="671" class="st4" width="31.3" height="5.9"/>
<rect x="533.6" y="569.2" class="st15" width="7.8" height="124.3"/>
<path class="st4" d="M642.2,634.2h113.5c0,0,22.4,28.6-12.4,71h-89.6C653.8,705.2,621.4,675.9,642.2,634.2z"/>
<g class="st8">
	<path d="M755.8,634.2H642.2c-0.3,0.5-0.5,1-0.7,1.5h110.4c0,0,21.8,27.9-11.1,69.5h2.6C778.1,662.7,755.8,634.2,755.8,634.2z"/>
</g>
<rect y="692.4" class="st16" width="787.2" height="26.7"/>
<rect x="33.4" y="719.1" class="st16" width="720.5" height="10.9"/>
<rect x="33.4" y="719.1" class="st15" width="720.5" height="3.6"/>
</svg>
